<svg width="209" height="41" viewBox="0 0 209 41" fill="none" xmlns="http://www.w3.org/2000/svg">
<path d="M58.2832 13C60.0965 13 61.5232 13.4333 62.5632 14.3C63.6032 15.1667 64.1232 16.36 64.1232 17.88C64.1232 19.4 63.6032 20.5933 62.5632 21.46C61.5232 22.3267 60.0965 22.76 58.2832 22.76H54.8232V27H52.8232V13H58.2832ZM58.2232 21.02C59.4899 21.02 60.4565 20.7533 61.1232 20.22C61.7899 19.6733 62.1232 18.8933 62.1232 17.88C62.1232 16.8667 61.7899 16.0933 61.1232 15.56C60.4565 15.0133 59.4899 14.74 58.2232 14.74H54.8232V21.02H58.2232ZM71.4824 27.12C70.4291 27.12 69.4824 26.8867 68.6424 26.42C67.8024 25.9533 67.1424 25.3133 66.6624 24.5C66.1957 23.6733 65.9624 22.74 65.9624 21.7C65.9624 20.66 66.1957 19.7333 66.6624 18.92C67.1424 18.0933 67.8024 17.4533 68.6424 17C69.4824 16.5333 70.4291 16.3 71.4824 16.3C72.5357 16.3 73.4757 16.5333 74.3024 17C75.1424 17.4533 75.7957 18.0933 76.2624 18.92C76.7424 19.7333 76.9824 20.66 76.9824 21.7C76.9824 22.74 76.7424 23.6733 76.2624 24.5C75.7957 25.3133 75.1424 25.9533 74.3024 26.42C73.4757 26.8867 72.5357 27.12 71.4824 27.12ZM71.4824 25.44C72.1624 25.44 72.7691 25.2867 73.3024 24.98C73.8491 24.66 74.2757 24.22 74.5824 23.66C74.8891 23.0867 75.0424 22.4333 75.0424 21.7C75.0424 20.9667 74.8891 20.32 74.5824 19.76C74.2757 19.1867 73.8491 18.7467 73.3024 18.44C72.7691 18.1333 72.1624 17.98 71.4824 17.98C70.8024 17.98 70.1891 18.1333 69.6424 18.44C69.1091 18.7467 68.6824 19.1867 68.3624 19.76C68.0557 20.32 67.9024 20.9667 67.9024 21.7C67.9024 22.4333 68.0557 23.0867 68.3624 23.66C68.6824 24.22 69.1091 24.66 69.6424 24.98C70.1891 25.2867 70.8024 25.44 71.4824 25.44ZM85.4577 16.3C86.4844 16.3 87.4044 16.5267 88.2177 16.98C89.0311 17.4333 89.6644 18.0667 90.1177 18.88C90.5844 19.6933 90.8177 20.6333 90.8177 21.7C90.8177 22.7667 90.5844 23.7133 90.1177 24.54C89.6644 25.3533 89.0311 25.9867 88.2177 26.44C87.4044 26.8933 86.4844 27.12 85.4577 27.12C84.6977 27.12 83.9977 26.9733 83.3577 26.68C82.7311 26.3867 82.1977 25.96 81.7577 25.4V30.88H79.8377V16.4H81.6777V18.08C82.1044 17.4933 82.6444 17.0533 83.2977 16.76C83.9511 16.4533 84.6711 16.3 85.4577 16.3ZM85.2977 25.44C85.9777 25.44 86.5844 25.2867 87.1177 24.98C87.6644 24.66 88.0911 24.22 88.3977 23.66C88.7177 23.0867 88.8777 22.4333 88.8777 21.7C88.8777 20.9667 88.7177 20.32 88.3977 19.76C88.0911 19.1867 87.6644 18.7467 87.1177 18.44C86.5844 18.1333 85.9777 17.98 85.2977 17.98C84.6311 17.98 84.0244 18.14 83.4777 18.46C82.9444 18.7667 82.5177 19.2 82.1977 19.76C81.8911 20.32 81.7377 20.9667 81.7377 21.7C81.7377 22.4333 81.8911 23.0867 82.1977 23.66C82.5044 24.22 82.9311 24.66 83.4777 24.98C84.0244 25.2867 84.6311 25.44 85.2977 25.44ZM99.2905 16.3C100.317 16.3 101.237 16.5267 102.051 16.98C102.864 17.4333 103.497 18.0667 103.951 18.88C104.417 19.6933 104.651 20.6333 104.651 21.7C104.651 22.7667 104.417 23.7133 103.951 24.54C103.497 25.3533 102.864 25.9867 102.051 26.44C101.237 26.8933 100.317 27.12 99.2905 27.12C98.5305 27.12 97.8305 26.9733 97.1905 26.68C96.5639 26.3867 96.0305 25.96 95.5905 25.4V30.88H93.6705V16.4H95.5105V18.08C95.9372 17.4933 96.4772 17.0533 97.1305 16.76C97.7839 16.4533 98.5039 16.3 99.2905 16.3ZM99.1305 25.44C99.8105 25.44 100.417 25.2867 100.951 24.98C101.497 24.66 101.924 24.22 102.231 23.66C102.551 23.0867 102.711 22.4333 102.711 21.7C102.711 20.9667 102.551 20.32 102.231 19.76C101.924 19.1867 101.497 18.7467 100.951 18.44C100.417 18.1333 99.8105 17.98 99.1305 17.98C98.4639 17.98 97.8572 18.14 97.3105 18.46C96.7772 18.7667 96.3505 19.2 96.0305 19.76C95.7239 20.32 95.5705 20.9667 95.5705 21.7C95.5705 22.4333 95.7239 23.0867 96.0305 23.66C96.3372 24.22 96.7639 24.66 97.3105 24.98C97.8572 25.2867 98.4639 25.44 99.1305 25.44ZM107.503 16.4H109.423V27H107.503V16.4ZM108.463 14.36C108.09 14.36 107.777 14.24 107.523 14C107.283 13.76 107.163 13.4667 107.163 13.12C107.163 12.7733 107.283 12.48 107.523 12.24C107.777 11.9867 108.09 11.86 108.463 11.86C108.837 11.86 109.143 11.98 109.383 12.22C109.637 12.4467 109.763 12.7333 109.763 13.08C109.763 13.44 109.637 13.7467 109.383 14C109.143 14.24 108.837 14.36 108.463 14.36ZM118.949 16.3C120.296 16.3 121.363 16.6933 122.149 17.48C122.949 18.2533 123.349 19.3933 123.349 20.9V27H121.429V21.12C121.429 20.0933 121.183 19.32 120.689 18.8C120.196 18.28 119.489 18.02 118.569 18.02C117.529 18.02 116.709 18.3267 116.109 18.94C115.509 19.54 115.209 20.4067 115.209 21.54V27H113.289V16.4H115.129V18C115.516 17.4533 116.036 17.0333 116.689 16.74C117.356 16.4467 118.109 16.3 118.949 16.3ZM137.034 27.16C135.98 27.16 134.96 27 133.974 26.68C133 26.3467 132.234 25.92 131.674 25.4L132.414 23.84C132.947 24.32 133.627 24.7133 134.454 25.02C135.294 25.3133 136.154 25.46 137.034 25.46C138.194 25.46 139.06 25.2667 139.634 24.88C140.207 24.48 140.494 23.9533 140.494 23.3C140.494 22.82 140.334 22.4333 140.014 22.14C139.707 21.8333 139.32 21.6 138.854 21.44C138.4 21.28 137.754 21.1 136.914 20.9C135.86 20.6467 135.007 20.3933 134.354 20.14C133.714 19.8867 133.16 19.5 132.694 18.98C132.24 18.4467 132.014 17.7333 132.014 16.84C132.014 16.0933 132.207 15.42 132.594 14.82C132.994 14.22 133.594 13.74 134.394 13.38C135.194 13.02 136.187 12.84 137.374 12.84C138.2 12.84 139.014 12.9467 139.814 13.16C140.614 13.3733 141.3 13.68 141.874 14.08L141.214 15.68C140.627 15.3067 140 15.0267 139.334 14.84C138.667 14.64 138.014 14.54 137.374 14.54C136.24 14.54 135.387 14.7467 134.814 15.16C134.254 15.5733 133.974 16.1067 133.974 16.76C133.974 17.24 134.134 17.6333 134.454 17.94C134.774 18.2333 135.167 18.4667 135.634 18.64C136.114 18.8 136.76 18.9733 137.574 19.16C138.627 19.4133 139.474 19.6667 140.114 19.92C140.754 20.1733 141.3 20.56 141.754 21.08C142.22 21.6 142.454 22.3 142.454 23.18C142.454 23.9133 142.254 24.5867 141.854 25.2C141.454 25.8 140.847 26.28 140.034 26.64C139.22 26.9867 138.22 27.16 137.034 27.16ZM151.256 26.38C150.976 26.62 150.629 26.8067 150.216 26.94C149.802 27.06 149.376 27.12 148.936 27.12C147.869 27.12 147.042 26.8333 146.456 26.26C145.869 25.6867 145.576 24.8667 145.576 23.8V17.98H143.776V16.4H145.576V14.08H147.496V16.4H150.536V17.98H147.496V23.72C147.496 24.2933 147.636 24.7333 147.916 25.04C148.209 25.3467 148.622 25.5 149.156 25.5C149.742 25.5 150.242 25.3333 150.656 25L151.256 26.38ZM163.657 16.4V27H161.837V25.4C161.45 25.9467 160.937 26.3733 160.297 26.68C159.67 26.9733 158.983 27.12 158.237 27.12C156.823 27.12 155.71 26.7333 154.897 25.96C154.083 25.1733 153.677 24.02 153.677 22.5V16.4H155.597V22.28C155.597 23.3067 155.843 24.0867 156.337 24.62C156.83 25.14 157.537 25.4 158.457 25.4C159.47 25.4 160.27 25.0933 160.857 24.48C161.443 23.8667 161.737 23 161.737 21.88V16.4H163.657ZM177.512 12.16V27H175.672V25.32C175.245 25.9067 174.705 26.3533 174.052 26.66C173.399 26.9667 172.679 27.12 171.892 27.12C170.865 27.12 169.945 26.8933 169.132 26.44C168.319 25.9867 167.679 25.3533 167.212 24.54C166.759 23.7133 166.532 22.7667 166.532 21.7C166.532 20.6333 166.759 19.6933 167.212 18.88C167.679 18.0667 168.319 17.4333 169.132 16.98C169.945 16.5267 170.865 16.3 171.892 16.3C172.652 16.3 173.352 16.4467 173.992 16.74C174.632 17.02 175.165 17.44 175.592 18V12.16H177.512ZM172.052 25.44C172.719 25.44 173.325 25.2867 173.872 24.98C174.419 24.66 174.845 24.22 175.152 23.66C175.459 23.0867 175.612 22.4333 175.612 21.7C175.612 20.9667 175.459 20.32 175.152 19.76C174.845 19.1867 174.419 18.7467 173.872 18.44C173.325 18.1333 172.719 17.98 172.052 17.98C171.372 17.98 170.759 18.1333 170.212 18.44C169.679 18.7467 169.252 19.1867 168.932 19.76C168.625 20.32 168.472 20.9667 168.472 21.7C168.472 22.4333 168.625 23.0867 168.932 23.66C169.252 24.22 169.679 24.66 170.212 24.98C170.759 25.2867 171.372 25.44 172.052 25.44ZM181.345 16.4H183.265V27H181.345V16.4ZM182.305 14.36C181.931 14.36 181.618 14.24 181.365 14C181.125 13.76 181.005 13.4667 181.005 13.12C181.005 12.7733 181.125 12.48 181.365 12.24C181.618 11.9867 181.931 11.86 182.305 11.86C182.678 11.86 182.985 11.98 183.225 12.22C183.478 12.4467 183.605 12.7333 183.605 13.08C183.605 13.44 183.478 13.7467 183.225 14C182.985 14.24 182.678 14.36 182.305 14.36ZM191.671 27.12C190.617 27.12 189.671 26.8867 188.831 26.42C187.991 25.9533 187.331 25.3133 186.851 24.5C186.384 23.6733 186.151 22.74 186.151 21.7C186.151 20.66 186.384 19.7333 186.851 18.92C187.331 18.0933 187.991 17.4533 188.831 17C189.671 16.5333 190.617 16.3 191.671 16.3C192.724 16.3 193.664 16.5333 194.491 17C195.331 17.4533 195.984 18.0933 196.451 18.92C196.931 19.7333 197.171 20.66 197.171 21.7C197.171 22.74 196.931 23.6733 196.451 24.5C195.984 25.3133 195.331 25.9533 194.491 26.42C193.664 26.8867 192.724 27.12 191.671 27.12ZM191.671 25.44C192.351 25.44 192.957 25.2867 193.491 24.98C194.037 24.66 194.464 24.22 194.771 23.66C195.077 23.0867 195.231 22.4333 195.231 21.7C195.231 20.9667 195.077 20.32 194.771 19.76C194.464 19.1867 194.037 18.7467 193.491 18.44C192.957 18.1333 192.351 17.98 191.671 17.98C190.991 17.98 190.377 18.1333 189.831 18.44C189.297 18.7467 188.871 19.1867 188.551 19.76C188.244 20.32 188.091 20.9667 188.091 21.7C188.091 22.4333 188.244 23.0867 188.551 23.66C188.871 24.22 189.297 24.66 189.831 24.98C190.377 25.2867 190.991 25.44 191.671 25.44ZM203.066 27.12C202.199 27.12 201.366 27.0067 200.566 26.78C199.766 26.54 199.139 26.24 198.686 25.88L199.486 24.36C199.953 24.6933 200.519 24.96 201.186 25.16C201.853 25.36 202.526 25.46 203.206 25.46C204.886 25.46 205.726 24.98 205.726 24.02C205.726 23.7 205.613 23.4467 205.386 23.26C205.159 23.0733 204.873 22.94 204.526 22.86C204.193 22.7667 203.713 22.6667 203.086 22.56C202.233 22.4267 201.533 22.2733 200.986 22.1C200.453 21.9267 199.993 21.6333 199.606 21.22C199.219 20.8067 199.026 20.2267 199.026 19.48C199.026 18.52 199.426 17.7533 200.226 17.18C201.026 16.5933 202.099 16.3 203.446 16.3C204.153 16.3 204.859 16.3867 205.566 16.56C206.273 16.7333 206.853 16.9667 207.306 17.26L206.486 18.78C205.619 18.22 204.599 17.94 203.426 17.94C202.613 17.94 201.993 18.0733 201.566 18.34C201.139 18.6067 200.926 18.96 200.926 19.4C200.926 19.7467 201.046 20.02 201.286 20.22C201.526 20.42 201.819 20.5667 202.166 20.66C202.526 20.7533 203.026 20.86 203.666 20.98C204.519 21.1267 205.206 21.2867 205.726 21.46C206.259 21.62 206.713 21.9 207.086 22.3C207.459 22.7 207.646 23.26 207.646 23.98C207.646 24.94 207.233 25.7067 206.406 26.28C205.593 26.84 204.479 27.12 203.066 27.12Z" fill="white"/>
<path d="M40.1095 20.0674C40.1095 31.1433 31.1301 40.1216 20.0541 40.1216C8.97824 40.1216 0 31.1433 0 20.0674C0 8.99152 8.97824 0.0120774 20.0541 0.0120774C31.1301 0.0120774 40.1095 8.99152 40.1095 20.0674Z" fill="#EB53C0"/>
<path d="M7.57149 11.5253C5.14737 13.9494 4.6108 16.1907 4.9705 17.9857C5.32901 19.7794 7.85996 21.0758 11.6089 20.1391C15.9158 19.0624 19.9532 13.858 18.3387 11.5253C16.7231 9.19261 10.6224 8.47559 7.57149 11.5253" fill="#A812CC"/>
<path d="M7.0338 13.3197C10.0847 10.2688 16.1854 10.987 17.7999 13.3197C18.0681 13.7055 18.1797 14.1709 18.1607 14.6837C18.695 13.5132 18.7935 12.4009 18.2486 11.615C16.6341 9.28229 10.5323 8.56408 7.48252 11.615C5.73388 13.3624 4.96819 15.0161 4.8103 16.4751C5.22698 15.4767 5.93571 14.4166 7.0338 13.3197" fill="#7D0D98"/>
<path d="M32.7836 23.548C30.8248 22.2802 24.888 23.3676 23.3625 25.7905C21.8371 28.2135 21.5688 30.5462 23.8112 31.8912C26.0537 33.2374 28.4767 31.9814 30.4509 30.2767C32.4251 28.572 35.8333 25.5211 32.7836 23.548Z" fill="#A812CC"/>
<path d="M24.5284 27.3171C26.0539 24.8941 31.9907 23.8067 33.9494 25.0746L33.9661 25.0853C33.8592 24.5344 33.4995 24.0121 32.7837 23.5491C30.8249 22.2813 24.8881 23.3687 23.3626 25.7916C21.9143 28.0923 21.5998 30.311 23.4932 31.6821C23.0777 30.4285 23.5371 28.8924 24.5284 27.3171" fill="#7D0D98"/>
<path d="M27.6695 6.86123C26.061 7.50466 24.7979 10.0012 26.5928 12.5143C28.3865 15.0263 31.5277 16.5518 33.0531 15.7433C34.5774 14.9361 36.1029 11.1681 33.9494 9.01468C31.796 6.86123 29.912 5.96376 27.6695 6.86123Z" fill="#A812CC"/>
<path d="M33.9494 8.92471C31.796 6.77126 29.912 5.8738 27.6695 6.77126C27.1282 6.98732 26.6261 7.41469 26.2664 7.98095C28.4566 7.1642 30.3109 8.06642 32.4252 10.1807C34.0361 11.7916 33.5874 14.3083 32.6199 15.8101C32.7742 15.7744 32.9202 15.7234 33.0532 15.6534C34.5774 14.8461 36.1029 11.077 33.9494 8.92471Z" fill="#7D0D98"/>
<path d="M15.4836 32.0074C13.9499 31.2168 10.4443 30.6268 8.12583 31.9077C7.07997 32.4859 6.31544 33.4178 5.98779 34.3591C9.104 37.416 13.2127 39.4602 17.776 39.9707C18.0538 39.592 18.3422 39.1183 18.6948 38.5224C19.5733 37.0397 17.0186 32.7981 15.4836 32.0074" fill="#A812CC"/>
<path d="M15.4919 31.9812C13.9582 31.1906 10.4526 30.6006 8.13292 31.8815C7.08706 32.4596 6.32374 33.3927 5.99609 34.3341C6.09937 34.435 6.20384 34.5359 6.31068 34.6345C6.6502 34.2676 7.05975 33.94 7.5251 33.6824C9.84356 32.4015 13.3492 32.9915 14.8829 33.7821C16.1342 34.4279 18.0644 37.3672 18.2579 39.2334C18.3957 39.0114 18.5429 38.7669 18.7031 38.4962C19.5816 37.0135 17.0257 32.7719 15.4919 31.9812" fill="#7D0D98"/>
<path d="M21.5486 40.0669C31.9265 39.3024 40.1094 30.6399 40.1094 20.0673C40.1094 8.99144 31.13 0.0119974 20.054 0.0119974C19.6647 0.0119974 19.2765 0.0238663 18.8918 0.0452346C19.3394 0.0155564 19.7881 0.000126067 20.2369 0.000126067C25.4472 0.000126067 30.6527 2.01824 34.5821 6.04023C42.3222 13.9619 42.1738 26.6595 34.2521 34.3995C30.6883 37.8814 26.1595 39.7666 21.5486 40.0669" fill="#414A73"/>
<path d="M20.238 40.1108C19.4189 40.1108 18.5974 40.061 17.783 39.9601C18.0585 39.5826 18.3457 39.1113 18.6947 38.5213C18.7387 38.4477 18.7731 38.3681 18.8004 38.2827C19.3548 36.642 16.9568 32.7376 15.4919 31.9826C14.6051 31.5255 13.0583 31.135 11.4639 31.135C10.3006 31.135 9.11106 31.3427 8.13287 31.8829C7.12975 32.4372 6.3866 33.3169 6.03877 34.2191C5.98891 34.1693 5.94142 34.1206 5.89275 34.0707C1.42083 29.4944 -0.418024 23.3237 0.353609 17.4367C0.904437 15.6263 2.57235 15.1479 3.93398 15.1479C4.35898 15.1479 4.7543 15.1942 5.07602 15.2619C4.93831 15.6797 4.85283 16.0846 4.81009 16.4763C4.84452 16.3932 4.88131 16.3113 4.9193 16.2282C4.83383 16.8503 4.85995 17.4391 4.97036 17.9863C5.24577 19.367 6.80802 20.4532 9.22264 20.4532C9.64288 20.4532 10.0881 20.4199 10.5582 20.3499C11.9483 22.679 13.0749 25.2706 14.2489 26.9741C16.4 30.0974 18.7529 33.3323 22.7061 33.3323C23.029 33.3323 23.3637 33.3098 23.7092 33.2647C24.8346 33.1175 25.954 32.7791 27.0272 32.29C28.2321 31.9588 29.4038 31.1813 30.4509 30.2779C31.7686 29.1394 33.7285 27.4003 33.9743 25.7822C36.1954 21.689 35.9081 17.8937 34.0942 14.7217C34.6343 13.9169 35.0273 12.7962 35.0166 11.6779C35.0261 10.6926 34.7281 9.70374 33.9493 8.92498C32.3562 7.33186 30.9103 6.42608 29.3575 6.42608C28.8115 6.42608 28.2523 6.53767 27.6694 6.77153C27.1376 6.98403 26.6449 7.39953 26.2864 7.94917C25.789 7.71174 25.2809 7.48856 24.7621 7.28319C20.8933 5.74704 16.3157 5.87762 12.473 4.2477C11.4402 3.81083 10.7339 3.2517 10.2994 2.63201C12.9704 1.10655 15.9133 0.245889 18.8918 0.0464513C19.2764 0.025083 19.6646 0.0132141 20.054 0.0132141C31.1299 0.0132141 40.1094 8.99265 40.1094 20.0686C40.1094 30.6411 31.9265 39.3036 21.5486 40.0681C21.1117 40.0966 20.6761 40.1108 20.238 40.1108" fill="#DB71C8"/>
<path d="M9.22299 20.4521C6.80837 20.4521 5.24612 19.3659 4.9707 17.9853C4.8603 17.438 4.83417 16.8492 4.91965 16.2272C5.05379 15.9363 5.21288 15.6419 5.39807 15.3416C5.42063 15.3487 5.44199 15.3558 5.46336 15.3629C7.60138 16.0633 9.20518 18.0815 10.5585 20.3489C10.0884 20.4189 9.64323 20.4521 9.22299 20.4521Z" fill="#A63DD1"/>
<path d="M4.8103 16.4751C4.85304 16.0833 4.93852 15.6785 5.07622 15.2607C5.19375 15.2856 5.30177 15.3129 5.39793 15.3414C5.21274 15.6417 5.05365 15.9361 4.91951 16.227C4.88152 16.3101 4.84473 16.392 4.8103 16.4751Z" fill="#8339A8"/>
<path d="M27.0273 32.29C29.7328 31.0566 32.1439 28.8664 33.629 26.3864C33.7512 26.1846 33.8652 25.9828 33.9744 25.7822C33.7287 27.4003 31.7687 29.1394 30.451 30.2779C29.404 31.1813 28.2323 31.9588 27.0273 32.29" fill="#A63DD1"/>
<path d="M26.3318 7.97119C26.3259 7.96763 26.3211 7.96525 26.3152 7.96288C26.3247 7.95932 26.3342 7.95576 26.3437 7.9522C26.3401 7.95813 26.3354 7.96407 26.3318 7.97119" fill="#DB71C8"/>
<path d="M34.0942 14.7207C34.0847 14.7041 34.0764 14.6887 34.0669 14.672C34.607 13.8862 35.0059 12.7845 35.0166 11.6769C35.0273 12.7952 34.6343 13.9158 34.0942 14.7207V14.7207ZM33.427 13.6772C31.7626 11.3267 29.2436 9.37388 26.3315 7.97069C26.3351 7.96357 26.3399 7.95763 26.3434 7.9517C26.8563 7.77007 27.3501 7.68222 27.8333 7.68222C29.386 7.68222 30.8319 8.58681 32.4251 10.1799C33.4009 11.1558 33.6205 12.464 33.427 13.6772Z" fill="#A63DD1"/>
<path d="M34.0668 14.6719C33.8698 14.3335 33.6573 14.0011 33.427 13.6771C33.6205 12.4638 33.4008 11.1556 32.425 10.1798C30.8319 8.58666 29.386 7.68206 27.8332 7.68206C27.3501 7.68206 26.8562 7.76991 26.3434 7.95154C26.3339 7.9551 26.3244 7.95866 26.3149 7.96222C26.3054 7.95748 26.2959 7.95273 26.2864 7.94798C26.6449 7.39834 27.1375 6.98284 27.6694 6.77035C28.2523 6.53648 28.8114 6.42489 29.3575 6.42489C30.9103 6.42489 32.3562 7.33067 33.9493 8.9238C34.728 9.70255 35.026 10.6914 35.0165 11.6767C35.0058 12.7843 34.607 13.886 34.0668 14.6719" fill="#8339A8"/>
<path d="M17.7831 39.9585C13.6341 39.4492 9.61564 37.646 6.38428 34.5559C6.70955 34.2211 7.09299 33.9219 7.5251 33.6821C8.50211 33.142 9.69161 32.9343 10.855 32.9343C12.4505 32.9343 13.9961 33.3248 14.8829 33.7819C16.1342 34.4277 18.0644 37.367 18.2579 39.2332C18.3957 39.0112 18.5429 38.7666 18.7031 38.496C18.7423 38.4295 18.7743 38.3582 18.8005 38.2811C18.7732 38.3666 18.7387 38.4461 18.6948 38.5197C18.3458 39.1097 18.0585 39.581 17.7831 39.9585" fill="#A63DD1"/>
<path d="M18.2579 39.2363C18.0644 37.3702 16.1342 34.4308 14.8829 33.785C13.9961 33.328 12.4505 32.9374 10.855 32.9374C9.6916 32.9374 8.5021 33.1452 7.52509 33.6853C7.09298 33.9251 6.70954 34.2243 6.38427 34.559C6.26793 34.4475 6.15278 34.3347 6.03882 34.2207C6.38665 33.3185 7.12979 32.4388 8.13292 31.8844C9.11111 31.3443 10.3006 31.1366 11.464 31.1366C13.0583 31.1366 14.6051 31.5271 15.4919 31.9842C16.9568 32.7392 19.3548 36.6436 18.8004 38.2843C18.7743 38.3614 18.7423 38.4326 18.7031 38.4991C18.5428 38.7698 18.3956 39.0143 18.2579 39.2363" fill="#8339A8"/>
<path d="M44.3737 12.6035C44.3714 12.6035 44.3678 12.6035 44.3654 12.6035C47.7309 12.6 50.459 9.78883 50.459 6.32361C50.459 2.85719 47.731 0.0460714 44.3643 0.04251C44.3678 0.04251 44.3702 0.04251 44.3737 0.04251C47.7428 0.04251 50.4744 2.85482 50.4744 6.32361C50.4744 9.79121 47.7428 12.6035 44.3737 12.6035" fill="#25386D"/>
</svg>
