<svg width="300" height="299" viewBox="0 0 300 299" fill="none" xmlns="http://www.w3.org/2000/svg">
<g filter="url(#filter0_d_16_52069)">
<rect x="158.154" y="69.5898" width="76.48" height="76.48" rx="18" transform="rotate(20.3247 158.154 69.5898)" fill="#2B2828"/>
</g>
<g clip-path="url(#clip0_16_52069)" filter="url(#filter1_d_16_52069)">
<path fill-rule="evenodd" clip-rule="evenodd" d="M171.371 110.426L174.719 134.172L164.101 107.733L171.371 110.426Z" fill="#EA6C00"/>
<path fill-rule="evenodd" clip-rule="evenodd" d="M192.731 118.338L174.722 134.173L200 121.03L192.731 118.338Z" fill="#EA6C00"/>
<path fill-rule="evenodd" clip-rule="evenodd" d="M171.371 110.426L192.727 118.336L174.719 134.172L171.371 110.426Z" fill="#FDAD00"/>
<path fill-rule="evenodd" clip-rule="evenodd" d="M186.112 103.413L175.621 100.679L171.371 110.426L186.112 103.413Z" fill="#FDD231"/>
<path fill-rule="evenodd" clip-rule="evenodd" d="M186.112 103.413L195.853 108.173L192.727 118.336L186.112 103.413Z" fill="#FDD231"/>
<path fill-rule="evenodd" clip-rule="evenodd" d="M200 121.031L195.856 108.174L192.731 118.338L200 121.031Z" fill="#FDAD00"/>
<path fill-rule="evenodd" clip-rule="evenodd" d="M164.101 107.733L175.621 100.679L171.371 110.426L164.101 107.733Z" fill="#FDAD00"/>
<path fill-rule="evenodd" clip-rule="evenodd" d="M186.112 103.413L171.371 110.426L192.727 118.336L186.112 103.413Z" fill="#FEEEB7"/>
</g>
<defs>
<filter id="filter0_d_16_52069" x="0.509764" y="0.363985" width="298.589" height="298.589" filterUnits="userSpaceOnUse" color-interpolation-filters="sRGB">
<feFlood flood-opacity="0" result="BackgroundImageFix"/>
<feColorMatrix in="SourceAlpha" type="matrix" values="0 0 0 0 0 0 0 0 0 0 0 0 0 0 0 0 0 0 127 0" result="hardAlpha"/>
<feOffset dx="-30.927" dy="30.927"/>
<feGaussianBlur stdDeviation="52.835"/>
<feColorMatrix type="matrix" values="0 0 0 0 0.267299 0 0 0 0 0.225781 0 0 0 0 0.6375 0 0 0 0.65 0"/>
<feBlend mode="normal" in2="BackgroundImageFix" result="effect1_dropShadow_16_52069"/>
<feBlend mode="normal" in="SourceGraphic" in2="effect1_dropShadow_16_52069" result="shape"/>
</filter>
<filter id="filter1_d_16_52069" x="105.692" y="45.5898" width="161.565" height="158.318" filterUnits="userSpaceOnUse" color-interpolation-filters="sRGB">
<feFlood flood-opacity="0" result="BackgroundImageFix"/>
<feColorMatrix in="SourceAlpha" type="matrix" values="0 0 0 0 0 0 0 0 0 0 0 0 0 0 0 0 0 0 127 0" result="hardAlpha"/>
<feOffset dx="6" dy="6"/>
<feGaussianBlur stdDeviation="28.5"/>
<feColorMatrix type="matrix" values="0 0 0 0 0.992157 0 0 0 0 0.678431 0 0 0 0 0 0 0 0 0.14 0"/>
<feBlend mode="normal" in2="BackgroundImageFix" result="effect1_dropShadow_16_52069"/>
<feBlend mode="normal" in="SourceGraphic" in2="effect1_dropShadow_16_52069" result="shape"/>
</filter>
<clipPath id="clip0_16_52069">
<rect width="38.5" height="33" fill="white" transform="translate(168.154 96.5898) rotate(20.3247)"/>
</clipPath>
</defs>
</svg>
